<svg width="40" height="40" viewBox="0 0 40 40" fill="none" xmlns="http://www.w3.org/2000/svg">
<mask id="mask0_1_1556" style="mask-type:alpha" maskUnits="userSpaceOnUse" x="8" y="8" width="24" height="24">
<rect x="8" y="8" width="24" height="24" fill="#D9D9D9"/>
</mask>
<g mask="url(#mask0_1_1556)">
<path d="M21 20C20.7167 20 20.4793 19.904 20.288 19.712C20.096 19.5207 20 19.2833 20 19V13C20 12.7167 20.096 12.479 20.288 12.287C20.4793 12.0957 20.7167 12 21 12C21.2833 12 21.521 12.0957 21.713 12.287C21.9043 12.479 22 12.7167 22 13V16.6L27.9 10.7C28.0833 10.5167 28.3167 10.425 28.6 10.425C28.8833 10.425 29.1167 10.5167 29.3 10.7C29.4833 10.8833 29.575 11.1167 29.575 11.4C29.575 11.6833 29.4833 11.9167 29.3 12.1L23.4 18H27C27.2833 18 27.5207 18.0957 27.712 18.287C27.904 18.479 28 18.7167 28 19C28 19.2833 27.904 19.5207 27.712 19.712C27.5207 19.904 27.2833 20 27 20H21ZM10.7 29.3C10.5167 29.1167 10.425 28.8833 10.425 28.6C10.425 28.3167 10.5167 28.0833 10.7 27.9L16.6 22H13C12.7167 22 12.479 21.904 12.287 21.712C12.0957 21.5207 12 21.2833 12 21C12 20.7167 12.0957 20.479 12.287 20.287C12.479 20.0957 12.7167 20 13 20H19C19.2833 20 19.521 20.0957 19.713 20.287C19.9043 20.479 20 20.7167 20 21V27C20 27.2833 19.9043 27.5207 19.713 27.712C19.521 27.904 19.2833 28 19 28C18.7167 28 18.4793 27.904 18.288 27.712C18.096 27.5207 18 27.2833 18 27V23.4L12.1 29.3C11.9167 29.4833 11.6833 29.575 11.4 29.575C11.1167 29.575 10.8833 29.4833 10.7 29.3Z" fill="#6C7074"/>
</g>
</svg>
