<svg width="40" height="40" viewBox="0 0 40 40" fill="none" xmlns="http://www.w3.org/2000/svg">
<path d="M23.71 16.29C23.617 16.1963 23.5064 16.1219 23.3846 16.0711C23.2627 16.0203 23.132 15.9942 23 15.9942C22.868 15.9942 22.7373 16.0203 22.6154 16.0711C22.4936 16.1219 22.383 16.1963 22.29 16.29L20 18.59L17.71 16.29C17.5217 16.1017 17.2663 15.9959 17 15.9959C16.7337 15.9959 16.4783 16.1017 16.29 16.29C16.1017 16.4783 15.9959 16.7337 15.9959 17C15.9959 17.2663 16.1017 17.5217 16.29 17.71L18.59 20L16.29 22.29C16.1963 22.383 16.1219 22.4936 16.0711 22.6154C16.0203 22.7373 15.9942 22.868 15.9942 23C15.9942 23.132 16.0203 23.2627 16.0711 23.3846C16.1219 23.5064 16.1963 23.617 16.29 23.71C16.383 23.8037 16.4936 23.8781 16.6154 23.9289C16.7373 23.9796 16.868 24.0058 17 24.0058C17.132 24.0058 17.2627 23.9796 17.3846 23.9289C17.5064 23.8781 17.617 23.8037 17.71 23.71L20 21.41L22.29 23.71C22.383 23.8037 22.4936 23.8781 22.6154 23.9289C22.7373 23.9796 22.868 24.0058 23 24.0058C23.132 24.0058 23.2627 23.9796 23.3846 23.9289C23.5064 23.8781 23.617 23.8037 23.71 23.71C23.8037 23.617 23.8781 23.5064 23.9289 23.3846C23.9797 23.2627 24.0058 23.132 24.0058 23C24.0058 22.868 23.9797 22.7373 23.9289 22.6154C23.8781 22.4936 23.8037 22.383 23.71 22.29L21.41 20L23.71 17.71C23.8037 17.617 23.8781 17.5064 23.9289 17.3846C23.9797 17.2627 24.0058 17.132 24.0058 17C24.0058 16.868 23.9797 16.7373 23.9289 16.6154C23.8781 16.4936 23.8037 16.383 23.71 16.29ZM27.07 12.93C26.1475 11.9749 25.0441 11.2131 23.824 10.689C22.604 10.1649 21.2918 9.88902 19.964 9.87748C18.6362 9.86595 17.3194 10.119 16.0905 10.6218C14.8615 11.1246 13.745 11.8671 12.806 12.806C11.8671 13.745 11.1246 14.8615 10.6218 16.0904C10.119 17.3194 9.86596 18.6362 9.87749 19.964C9.88903 21.2918 10.1649 22.604 10.689 23.824C11.2131 25.0441 11.9749 26.1475 12.93 27.07C13.8525 28.0251 14.9559 28.7869 16.176 29.311C17.396 29.8351 18.7082 30.111 20.036 30.1225C21.3638 30.134 22.6806 29.881 23.9095 29.3782C25.1385 28.8754 26.255 28.1329 27.194 27.1939C28.1329 26.255 28.8754 25.1385 29.3782 23.9095C29.881 22.6806 30.134 21.3638 30.1225 20.036C30.111 18.7082 29.8351 17.396 29.311 16.1759C28.7869 14.9559 28.0251 13.8525 27.07 12.93ZM25.66 25.66C24.352 26.9694 22.6305 27.7848 20.7888 27.9673C18.947 28.1498 17.099 27.688 15.5595 26.6608C14.02 25.6335 12.8844 24.1042 12.346 22.3335C11.8076 20.5627 11.8998 18.6601 12.6069 16.9498C13.314 15.2394 14.5923 13.8271 16.2239 12.9535C17.8555 12.08 19.7395 11.7991 21.555 12.1589C23.3705 12.5186 25.005 13.4967 26.1802 14.9264C27.3554 16.3562 27.9985 18.1492 28 20C28.0036 21.0513 27.7986 22.0928 27.3969 23.0644C26.9953 24.0359 26.4049 24.9181 25.66 25.66Z" fill="#6C7074"/>
</svg>
